<svg width="34" height="38" viewBox="0 0 34 38" fill="none" xmlns="http://www.w3.org/2000/svg">
  <rect width="34" height="38" fill="#0A0C0E"/>
  <path d="M17 3C17 3 5 15 5 24C5 30.6 10.4 35 17 35C23.6 35 29 30.6 29 24C29 15 17 3 17 3Z" stroke="#B6FF3C" stroke-width="2"/>
  <path d="M21.5 18.5C20.6 17.4 19 16.7 17.2 16.7C14.4 16.7 12.5 18.2 12.5 20.3C12.5 24.6 21.8 22.7 21.8 26.9C21.8 29.1 19.7 30.6 16.8 30.6C14.7 30.6 12.9 29.7 12 28.4" stroke="#B6FF3C" stroke-width="2" stroke-linecap="round"/>
</svg>
